<svg xmlns="http://www.w3.org/2000/svg" viewBox="0 0 0 0"><title>plantilla</title>
<svg class="some-css-class" width="48.3mm" height="48.3mm" version="1.1" viewBox="0 0 48.3 48.3" xmlns="http://www.w3.org/2000/svg"><path d="M0,0H2.3V2.3H0zM2.3,0H4.6V2.3H2.3zM4.6,0H6.9V2.3H4.6zM6.9,0H9.2V2.3H6.9zM9.2,0H11.5V2.3H9.2zM11.5,0H13.8V2.3H11.5zM13.8,0H16.1V2.3H13.8zM18.4,0H20.7V2.3H18.4zM23,0H25.3V2.3H23zM27.6,0H29.9V2.3H27.6zM32.2,0H34.5V2.3H32.2zM34.5,0H36.8V2.3H34.5zM36.8,0H39.1V2.3H36.8zM39.1,0H41.4V2.3H39.1zM41.4,0H43.7V2.3H41.4zM43.7,0H46V2.3H43.7zM46,0H48.3V2.3H46zM0,2.3H2.3V4.6H0zM13.8,2.3H16.1V4.6H13.8zM18.4,2.3H20.7V4.6H18.4zM23,2.3H25.3V4.6H23zM27.6,2.3H29.9V4.6H27.6zM32.2,2.3H34.5V4.6H32.2zM46,2.3H48.3V4.6H46zM0,4.6H2.3V6.9H0zM4.6,4.6H6.9V6.9H4.6zM6.9,4.6H9.2V6.9H6.9zM9.2,4.6H11.5V6.9H9.2zM13.8,4.6H16.1V6.9H13.8zM18.4,4.6H20.7V6.9H18.4zM20.7,4.6H23V6.9H20.7zM23,4.6H25.3V6.9H23zM27.6,4.6H29.9V6.9H27.6zM32.2,4.6H34.5V6.9H32.2zM36.8,4.6H39.1V6.9H36.8zM39.1,4.6H41.4V6.9H39.1zM41.4,4.6H43.7V6.9H41.4zM46,4.6H48.3V6.9H46zM0,6.9H2.3V9.2H0zM4.6,6.9H6.9V9.2H4.6zM6.9,6.9H9.2V9.2H6.9zM9.2,6.9H11.5V9.2H9.2zM13.8,6.9H16.1V9.2H13.8zM20.7,6.9H23V9.2H20.7zM23,6.9H25.3V9.2H23zM27.6,6.9H29.9V9.2H27.6zM32.2,6.9H34.5V9.2H32.2zM36.8,6.9H39.1V9.2H36.8zM39.1,6.9H41.4V9.2H39.1zM41.4,6.9H43.7V9.2H41.4zM46,6.9H48.3V9.2H46zM0,9.2H2.3V11.5H0zM4.6,9.2H6.9V11.5H4.6zM6.9,9.2H9.2V11.5H6.9zM9.2,9.2H11.5V11.5H9.2zM13.8,9.2H16.1V11.5H13.8zM25.3,9.2H27.6V11.5H25.3zM32.2,9.2H34.5V11.5H32.2zM36.8,9.2H39.1V11.5H36.8zM39.1,9.2H41.4V11.5H39.1zM41.4,9.2H43.7V11.5H41.4zM46,9.2H48.3V11.5H46zM0,11.5H2.3V13.8H0zM13.8,11.5H16.1V13.8H13.8zM18.4,11.5H20.7V13.8H18.4zM20.7,11.5H23V13.8H20.7zM23,11.5H25.3V13.8H23zM25.3,11.5H27.6V13.8H25.3zM27.6,11.5H29.9V13.8H27.6zM32.2,11.5H34.5V13.8H32.2zM46,11.5H48.3V13.8H46zM0,13.8H2.3V16.1H0zM2.3,13.8H4.6V16.1H2.3zM4.6,13.8H6.9V16.1H4.6zM6.9,13.8H9.2V16.1H6.9zM9.2,13.8H11.5V16.1H9.2zM11.5,13.8H13.8V16.1H11.5zM13.8,13.8H16.1V16.1H13.8zM18.4,13.8H20.7V16.1H18.4zM23,13.8H25.3V16.1H23zM27.6,13.8H29.9V16.1H27.6zM32.2,13.8H34.5V16.1H32.2zM34.5,13.8H36.8V16.1H34.5zM36.8,13.8H39.1V16.1H36.8zM39.1,13.8H41.4V16.1H39.1zM41.4,13.8H43.7V16.1H41.4zM43.7,13.8H46V16.1H43.7zM46,13.8H48.3V16.1H46zM18.4,16.1H20.7V18.4H18.4zM20.7,16.1H23V18.4H20.7zM23,16.1H25.3V18.4H23zM25.3,16.1H27.6V18.4H25.3zM4.6,18.4H6.9V20.7H4.6zM6.9,18.4H9.2V20.7H6.9zM9.2,18.4H11.5V20.7H9.2zM13.8,18.4H16.1V20.7H13.8zM18.4,18.4H20.7V20.7H18.4zM23,18.4H25.3V20.7H23zM25.3,18.4H27.6V20.7H25.3zM27.6,18.4H29.9V20.7H27.6zM29.9,18.4H32.2V20.7H29.9zM32.2,18.4H34.5V20.7H32.2zM34.5,18.4H36.8V20.7H34.5zM41.4,18.4H43.7V20.7H41.4zM43.7,18.4H46V20.7H43.7zM46,18.4H48.3V20.7H46zM4.6,20.7H6.9V23H4.6zM18.4,20.7H20.7V23H18.4zM27.6,20.7H29.9V23H27.6zM32.2,20.7H34.5V23H32.2zM34.5,20.7H36.8V23H34.5zM39.1,20.7H41.4V23H39.1zM4.6,23H6.9V25.3H4.6zM9.2,23H11.5V25.3H9.2zM13.8,23H16.1V25.3H13.8zM18.4,23H20.7V25.3H18.4zM29.9,23H32.2V25.3H29.9zM36.8,23H39.1V25.3H36.8zM41.4,23H43.7V25.3H41.4zM43.7,23H46V25.3H43.7zM11.5,25.3H13.8V27.6H11.5zM16.1,25.3H18.4V27.6H16.1zM20.7,25.3H23V27.6H20.7zM34.5,25.3H36.8V27.6H34.5zM36.8,25.3H39.1V27.6H36.8zM41.4,25.3H43.7V27.6H41.4zM43.7,25.3H46V27.6H43.7zM46,25.3H48.3V27.6H46zM0,27.6H2.3V29.9H0zM2.3,27.6H4.6V29.9H2.3zM4.6,27.6H6.9V29.9H4.6zM6.9,27.6H9.2V29.9H6.9zM9.2,27.6H11.5V29.9H9.2zM11.5,27.6H13.8V29.9H11.5zM13.8,27.6H16.1V29.9H13.8zM16.1,27.6H18.4V29.9H16.1zM20.7,27.6H23V29.9H20.7zM23,27.6H25.3V29.9H23zM25.3,27.6H27.6V29.9H25.3zM27.6,27.6H29.9V29.9H27.6zM29.9,27.6H32.2V29.9H29.9zM32.2,27.6H34.5V29.9H32.2zM36.8,27.6H39.1V29.9H36.8zM18.4,29.9H20.7V32.2H18.4zM29.9,29.9H32.2V32.2H29.9zM32.2,29.9H34.5V32.2H32.2zM41.4,29.9H43.7V32.2H41.4zM43.7,29.9H46V32.2H43.7zM46,29.9H48.3V32.2H46zM0,32.2H2.3V34.5H0zM2.3,32.2H4.6V34.5H2.3zM4.6,32.2H6.9V34.5H4.6zM6.9,32.2H9.2V34.5H6.9zM9.2,32.2H11.5V34.5H9.2zM11.5,32.2H13.8V34.5H11.5zM13.8,32.2H16.1V34.5H13.8zM20.7,32.2H23V34.5H20.7zM23,32.2H25.3V34.5H23zM25.3,32.2H27.6V34.5H25.3zM34.5,32.2H36.8V34.5H34.5zM41.4,32.2H43.7V34.5H41.4zM46,32.2H48.3V34.5H46zM0,34.5H2.3V36.8H0zM13.8,34.5H16.1V36.8H13.8zM20.7,34.5H23V36.8H20.7zM25.3,34.5H27.6V36.8H25.3zM46,34.5H48.3V36.8H46zM0,36.8H2.3V39.1H0zM4.6,36.8H6.9V39.1H4.6zM6.9,36.8H9.2V39.1H6.9zM9.2,36.8H11.5V39.1H9.2zM13.8,36.8H16.1V39.1H13.8zM18.4,36.8H20.7V39.1H18.4zM27.6,36.8H29.9V39.1H27.6zM29.9,36.8H32.2V39.1H29.9zM34.5,36.8H36.8V39.1H34.5zM39.1,36.8H41.4V39.1H39.1zM41.4,36.8H43.7V39.1H41.4zM0,39.1H2.3V41.4H0zM4.6,39.1H6.9V41.4H4.6zM6.9,39.1H9.2V41.4H6.9zM9.2,39.1H11.5V41.4H9.2zM13.8,39.1H16.1V41.4H13.8zM18.4,39.1H20.7V41.4H18.4zM20.7,39.1H23V41.4H20.7zM23,39.1H25.3V41.4H23zM29.9,39.1H32.2V41.4H29.9zM34.5,39.1H36.8V41.4H34.5zM0,41.4H2.3V43.7H0zM4.6,41.4H6.9V43.7H4.6zM6.9,41.4H9.2V43.7H6.9zM9.2,41.4H11.5V43.7H9.2zM13.8,41.4H16.1V43.7H13.8zM18.4,41.4H20.7V43.7H18.4zM23,41.4H25.3V43.7H23zM29.9,41.4H32.2V43.7H29.9zM36.8,41.4H39.1V43.7H36.8zM41.4,41.4H43.7V43.7H41.4zM0,43.7H2.3V46H0zM13.8,43.7H16.1V46H13.8zM23,43.7H25.3V46H23zM32.2,43.7H34.5V46H32.2zM34.5,43.7H36.8V46H34.5zM36.8,43.7H39.1V46H36.8zM41.4,43.7H43.7V46H41.4zM46,43.7H48.3V46H46zM0,46H2.3V48.3H0zM2.3,46H4.6V48.3H2.3zM4.6,46H6.9V48.3H4.6zM6.9,46H9.2V48.3H6.9zM9.2,46H11.5V48.3H9.2zM11.5,46H13.8V48.3H11.5zM13.8,46H16.1V48.3H13.8zM20.7,46H23V48.3H20.7zM23,46H25.3V48.3H23zM27.6,46H29.9V48.3H27.6zM36.8,46H39.1V48.3H36.8zM41.4,46H43.7V48.3H41.4z" id="qr-path" fill="#000000" fill-opacity="1" fill-rule="nonzero" stroke="none" /></svg>
</svg>