<?xml version="1.0" encoding="utf-8"?>
<!-- Generator: Adobe Illustrator 24.0.2, SVG Export Plug-In . SVG Version: 6.00 Build 0)  -->
<svg version="1.1" id="Layer_1" xmlns="http://www.w3.org/2000/svg" xmlns:xlink="http://www.w3.org/1999/xlink" x="0px" y="0px"
	 viewBox="0 0 215.19 272.63" style="enable-background:new 0 0 215.19 272.63;" xml:space="preserve">
<style type="text/css">
	.st0{font-family:'Montserrat-Bold';}
	.st1{font-size:25px;}
	.st2{fill:#FFFFFF;stroke:#000000;stroke-miterlimit:10;}
	.st3{fill:#FFFFFF;}
	.st4{fill:#151518;}
	.st5{display:none;}
	.st6{font-family:'MyriadPro-Regular';}
	.st7{font-size:12px;}
</style>
<g id="Layer_1_1_">
	<svg width="75.9mm" height="75.9mm" version="1.1" viewBox="0 0 75.9 75.9" xmlns="http://www.w3.org/2000/svg"><path d="M 69 34.5 L 69 36.8 L 71.3 36.8 L 71.3 34.5 z M 0 4.6 L 0 6.9 L 2.3 6.9 L 2.3 4.6 z M 62.1 36.8 L 62.1 39.1 L 64.4 39.1 L 64.4 36.8 z M 39.1 0 L 39.1 2.3 L 41.4 2.3 L 41.4 0 z M 59.8 6.9 L 59.8 9.2 L 62.1 9.2 L 62.1 6.9 z M 34.5 0 L 34.5 2.3 L 36.8 2.3 L 36.8 0 z M 55.2 46 L 55.2 48.3 L 57.5 48.3 L 57.5 46 z M 52.9 9.2 L 52.9 11.5 L 55.2 11.5 L 55.2 9.2 z M 48.3 9.2 L 48.3 11.5 L 50.6 11.5 L 50.6 9.2 z M 43.7 9.2 L 43.7 11.5 L 46.0 11.5 L 46.0 9.2 z M 43.7 48.3 L 43.7 50.6 L 46.0 50.6 L 46.0 48.3 z M 32.2 18.4 L 32.2 20.7 L 34.5 20.7 L 34.5 18.4 z M 36.8 57.5 L 36.8 59.8 L 39.1 59.8 L 39.1 57.5 z M 25.3 66.7 L 25.3 69.0 L 27.6 69.0 L 27.6 66.7 z M 23 29.9 L 23 32.2 L 25.3 32.2 L 25.3 29.9 z M 11.5 0 L 11.5 2.3 L 13.8 2.3 L 13.8 0 z M 6.9 0 L 6.9 2.3 L 9.2 2.3 L 9.2 0 z M 11.5 39.1 L 11.5 41.4 L 13.8 41.4 L 13.8 39.1 z M 6.9 39.1 L 6.9 41.4 L 9.2 41.4 L 9.2 39.1 z M 0 2.3 L 0 4.6 L 2.3 4.6 L 2.3 2.3 z M 9.2 41.4 L 9.2 43.7 L 11.5 43.7 L 11.5 41.4 z M 4.6 41.4 L 4.6 43.7 L 6.9 43.7 L 6.9 41.4 z M 66.7 73.6 L 66.7 75.9 L 69.0 75.9 L 69.0 73.6 z M 0 41.4 L 0 43.7 L 2.3 43.7 L 2.3 41.4 z M 64.4 4.6 L 64.4 6.9 L 66.7 6.9 L 66.7 4.6 z M 59.8 4.6 L 59.8 6.9 L 62.1 6.9 L 62.1 4.6 z M 55.2 4.6 L 55.2 6.9 L 57.5 6.9 L 57.5 4.6 z M 39.1 36.8 L 39.1 39.1 L 41.4 39.1 L 41.4 36.8 z M 55.2 43.7 L 55.2 46.0 L 57.5 46.0 L 57.5 43.7 z M 52.9 6.9 L 52.9 9.2 L 55.2 9.2 L 55.2 6.9 z M 48.3 6.9 L 48.3 9.2 L 50.6 9.2 L 50.6 6.9 z M 57.5 46 L 57.5 48.3 L 59.8 48.3 L 59.8 46 z M 41.4 16.1 L 41.4 18.4 L 43.7 18.4 L 43.7 16.1 z M 29.9 48.3 L 29.9 50.6 L 32.2 50.6 L 32.2 48.3 z M 73.6 13.8 L 73.6 16.1 L 75.9 16.1 L 75.9 13.8 z M 23 27.6 L 23 29.9 L 25.3 29.9 L 25.3 27.6 z M 32.2 66.7 L 32.2 69.0 L 34.5 69.0 L 34.5 66.7 z M 16.1 36.8 L 16.1 39.1 L 18.4 39.1 L 18.4 36.8 z M 13.8 0 L 13.8 2.3 L 16.1 2.3 L 16.1 0 z M 9.2 0 L 9.2 2.3 L 11.5 2.3 L 11.5 0 z M 4.6 0 L 4.6 2.3 L 6.9 2.3 L 6.9 0 z M 71.3 71.3 L 71.3 73.6 L 73.6 73.6 L 73.6 71.3 z M 4.6 39.1 L 4.6 41.4 L 6.9 41.4 L 6.9 39.1 z M 6.9 9.2 L 6.9 11.5 L 9.2 11.5 L 9.2 9.2 z M 69 41.4 L 69 43.7 L 71.3 43.7 L 71.3 41.4 z M 52.9 43.7 L 52.9 46.0 L 55.2 46.0 L 55.2 43.7 z M 55.2 13.8 L 55.2 16.1 L 57.5 16.1 L 57.5 13.8 z M 29.9 6.9 L 29.9 9.2 L 32.2 9.2 L 32.2 6.9 z M 50.6 13.8 L 50.6 16.1 L 52.9 16.1 L 52.9 13.8 z M 46 13.8 L 46 16.1 L 48.3 16.1 L 48.3 13.8 z M 29.9 46 L 29.9 48.3 L 32.2 48.3 L 32.2 46 z M 50.6 52.9 L 50.6 55.2 L 52.9 55.2 L 52.9 52.9 z M 73.6 50.6 L 73.6 52.9 L 75.9 52.9 L 75.9 50.6 z M 36.8 64.4 L 36.8 66.7 L 39.1 66.7 L 39.1 64.4 z M 32.2 64.4 L 32.2 66.7 L 34.5 66.7 L 34.5 64.4 z M 25.3 34.5 L 25.3 36.8 L 27.6 36.8 L 27.6 34.5 z M 20.7 34.5 L 20.7 36.8 L 23.0 36.8 L 23.0 34.5 z M 13.8 36.8 L 13.8 39.1 L 16.1 39.1 L 16.1 36.8 z M 69 0 L 69 2.3 L 71.3 2.3 L 71.3 0 z M 6.9 6.9 L 6.9 9.2 L 9.2 9.2 L 9.2 6.9 z M 11.5 46 L 11.5 48.3 L 13.8 48.3 L 13.8 46 z M 4.6 9.2 L 4.6 11.5 L 6.9 11.5 L 6.9 9.2 z M 66.7 41.4 L 66.7 43.7 L 69.0 43.7 L 69.0 41.4 z M 0 9.2 L 0 11.5 L 2.3 11.5 L 2.3 9.2 z M 62.1 41.4 L 62.1 43.7 L 64.4 43.7 L 64.4 41.4 z M 2.3 46 L 2.3 48.3 L 4.6 48.3 L 4.6 46 z M 0 48.3 L 0 50.6 L 2.3 50.6 L 2.3 48.3 z M 39.1 4.6 L 39.1 6.9 L 41.4 6.9 L 41.4 4.6 z M 59.8 11.5 L 59.8 13.8 L 62.1 13.8 L 62.1 11.5 z M 34.5 4.6 L 34.5 6.9 L 36.8 6.9 L 36.8 4.6 z M 39.1 43.7 L 39.1 46.0 L 41.4 46.0 L 41.4 43.7 z M 59.8 50.6 L 59.8 52.9 L 62.1 52.9 L 62.1 50.6 z M 55.2 50.6 L 55.2 52.9 L 57.5 52.9 L 57.5 50.6 z M 43.7 52.9 L 43.7 55.2 L 46.0 55.2 L 46.0 52.9 z M 36.8 23 L 36.8 25.3 L 39.1 25.3 L 39.1 23 z M 32.2 62.1 L 32.2 64.4 L 34.5 64.4 L 34.5 62.1 z M 18.4 34.5 L 18.4 36.8 L 20.7 36.8 L 20.7 34.5 z M 23 73.6 L 23 75.9 L 25.3 75.9 L 25.3 73.6 z M 71.3 0 L 71.3 2.3 L 73.6 2.3 L 73.6 0 z M 6.9 4.6 L 6.9 6.9 L 9.2 6.9 L 9.2 4.6 z M 66.7 0 L 66.7 2.3 L 69.0 2.3 L 69.0 0 z M 16.1 43.7 L 16.1 46.0 L 18.4 46.0 L 18.4 43.7 z M 9.2 6.9 L 9.2 9.2 L 11.5 9.2 L 11.5 6.9 z M 71.3 39.1 L 71.3 41.4 L 73.6 41.4 L 73.6 39.1 z M 4.6 6.9 L 4.6 9.2 L 6.9 9.2 L 6.9 6.9 z M 66.7 39.1 L 66.7 41.4 L 69.0 41.4 L 69.0 39.1 z M 0 6.9 L 0 9.2 L 2.3 9.2 L 2.3 6.9 z M 4.6 46 L 4.6 48.3 L 6.9 48.3 L 6.9 46 z M 64.4 9.2 L 64.4 11.5 L 66.7 11.5 L 66.7 9.2 z M 39.1 2.3 L 39.1 4.6 L 41.4 4.6 L 41.4 2.3 z M 59.8 9.2 L 59.8 11.5 L 62.1 11.5 L 62.1 9.2 z M 64.4 48.3 L 64.4 50.6 L 66.7 50.6 L 66.7 48.3 z M 39.1 41.4 L 39.1 43.7 L 41.4 43.7 L 41.4 41.4 z M 59.8 48.3 L 59.8 50.6 L 62.1 50.6 L 62.1 48.3 z M 52.9 11.5 L 52.9 13.8 L 55.2 13.8 L 55.2 11.5 z M 46 20.7 L 46 23.0 L 48.3 23.0 L 48.3 20.7 z M 46 59.8 L 46 62.1 L 48.3 62.1 L 48.3 59.8 z M 32.2 32.2 L 32.2 34.5 L 34.5 34.5 L 34.5 32.2 z M 27.6 32.2 L 27.6 34.5 L 29.9 34.5 L 29.9 32.2 z M 23 32.2 L 23 34.5 L 25.3 34.5 L 25.3 32.2 z M 32.2 71.3 L 32.2 73.6 L 34.5 73.6 L 34.5 71.3 z M 23 71.3 L 23 73.6 L 25.3 73.6 L 25.3 71.3 z M 13.8 4.6 L 13.8 6.9 L 16.1 6.9 L 16.1 4.6 z M 9.2 4.6 L 9.2 6.9 L 11.5 6.9 L 11.5 4.6 z M 71.3 36.8 L 71.3 39.1 L 73.6 39.1 L 73.6 36.8 z M 4.6 4.6 L 4.6 6.9 L 6.9 6.9 L 6.9 4.6 z M 69 6.9 L 69 9.2 L 71.3 9.2 L 71.3 6.9 z M 64.4 6.9 L 64.4 9.2 L 66.7 9.2 L 66.7 6.9 z M 6.9 13.8 L 6.9 16.1 L 9.2 16.1 L 9.2 13.8 z M 2.3 13.8 L 2.3 16.1 L 4.6 16.1 L 4.6 13.8 z M 62.1 48.3 L 62.1 50.6 L 64.4 50.6 L 64.4 48.3 z M 34.5 11.5 L 34.5 13.8 L 36.8 13.8 L 36.8 11.5 z M 55.2 18.4 L 55.2 20.7 L 57.5 20.7 L 57.5 18.4 z M 29.9 11.5 L 29.9 13.8 L 32.2 13.8 L 32.2 11.5 z M 55.2 57.5 L 55.2 59.8 L 57.5 59.8 L 57.5 57.5 z M 48.3 20.7 L 48.3 23.0 L 50.6 23.0 L 50.6 20.7 z M 46 57.5 L 46 59.8 L 48.3 59.8 L 48.3 57.5 z M 43.7 20.7 L 43.7 23.0 L 46.0 23.0 L 46.0 20.7 z M 48.3 59.8 L 48.3 62.1 L 50.6 62.1 L 50.6 59.8 z M 32.2 29.9 L 32.2 32.2 L 34.5 32.2 L 34.5 29.9 z M 36.8 69 L 36.8 71.3 L 39.1 71.3 L 39.1 69 z M 25.3 0 L 25.3 2.3 L 27.6 2.3 L 27.6 0 z M 23 2.3 L 23 4.6 L 25.3 4.6 L 25.3 2.3 z M 20.7 39.1 L 20.7 41.4 L 23.0 41.4 L 23.0 39.1 z M 13.8 2.3 L 13.8 4.6 L 16.1 4.6 L 16.1 2.3 z M 18.4 41.4 L 18.4 43.7 L 20.7 43.7 L 20.7 41.4 z M 13.8 41.4 L 13.8 43.7 L 16.1 43.7 L 16.1 41.4 z M 69 4.6 L 69 6.9 L 71.3 6.9 L 71.3 4.6 z M 69 43.7 L 69 46.0 L 71.3 46.0 L 71.3 43.7 z M 66.7 6.9 L 66.7 9.2 L 69.0 9.2 L 69.0 6.9 z M 6.9 50.6 L 6.9 52.9 L 9.2 52.9 L 9.2 50.6 z M 4.6 13.8 L 4.6 16.1 L 6.9 16.1 L 6.9 13.8 z M 66.7 46 L 66.7 48.3 L 69.0 48.3 L 69.0 46 z M 0 13.8 L 0 16.1 L 2.3 16.1 L 2.3 13.8 z M 62.1 46 L 62.1 48.3 L 64.4 48.3 L 64.4 46 z M 0 52.9 L 0 55.2 L 2.3 55.2 L 2.3 52.9 z M 55.2 16.1 L 55.2 18.4 L 57.5 18.4 L 57.5 16.1 z M 50.6 16.1 L 50.6 18.4 L 52.9 18.4 L 52.9 16.1 z M 39.1 48.3 L 39.1 50.6 L 41.4 50.6 L 41.4 48.3 z M 34.5 48.3 L 34.5 50.6 L 36.8 50.6 L 36.8 48.3 z M 55.2 55.2 L 55.2 57.5 L 57.5 57.5 L 57.5 55.2 z M 59.8 55.2 L 59.8 57.5 L 62.1 57.5 L 62.1 55.2 z M 50.6 55.2 L 50.6 57.5 L 52.9 57.5 L 52.9 55.2 z M 43.7 18.4 L 43.7 20.7 L 46.0 20.7 L 46.0 18.4 z M 52.9 57.5 L 52.9 59.8 L 55.2 59.8 L 55.2 57.5 z M 43.7 57.5 L 43.7 59.8 L 46.0 59.8 L 46.0 57.5 z M 41.4 27.6 L 41.4 29.9 L 43.7 29.9 L 43.7 27.6 z M 36.8 27.6 L 36.8 29.9 L 39.1 29.9 L 39.1 27.6 z M 41.4 66.7 L 41.4 69.0 L 43.7 69.0 L 43.7 66.7 z M 73.6 25.3 L 73.6 27.6 L 75.9 27.6 L 75.9 25.3 z M 27.6 0 L 27.6 2.3 L 29.9 2.3 L 29.9 0 z M 27.6 39.1 L 27.6 41.4 L 29.9 41.4 L 29.9 39.1 z M 66.7 4.6 L 66.7 6.9 L 69.0 6.9 L 69.0 4.6 z M 66.7 43.7 L 66.7 46.0 L 69.0 46.0 L 69.0 43.7 z M 0 11.5 L 0 13.8 L 2.3 13.8 L 2.3 11.5 z M 9.2 50.6 L 9.2 52.9 L 11.5 52.9 L 11.5 50.6 z M 4.6 50.6 L 4.6 52.9 L 6.9 52.9 L 6.9 50.6 z M 69 13.8 L 69 16.1 L 71.3 16.1 L 71.3 13.8 z M 0 50.6 L 0 52.9 L 2.3 52.9 L 2.3 50.6 z M 64.4 13.8 L 64.4 16.1 L 66.7 16.1 L 66.7 13.8 z M 39.1 6.9 L 39.1 9.2 L 41.4 9.2 L 41.4 6.9 z M 59.8 13.8 L 59.8 16.1 L 62.1 16.1 L 62.1 13.8 z M 2.3 20.7 L 2.3 23.0 L 4.6 23.0 L 4.6 20.7 z M 64.4 52.9 L 64.4 55.2 L 66.7 55.2 L 66.7 52.9 z M 57.5 55.2 L 57.5 57.5 L 59.8 57.5 L 59.8 55.2 z M 50.6 25.3 L 50.6 27.6 L 52.9 27.6 L 52.9 25.3 z M 46 25.3 L 46 27.6 L 48.3 27.6 L 48.3 25.3 z M 46 64.4 L 46 66.7 L 48.3 66.7 L 48.3 64.4 z M 41.4 64.4 L 41.4 66.7 L 43.7 66.7 L 43.7 64.4 z M 73.6 23 L 73.6 25.3 L 75.9 25.3 L 75.9 23 z M 32.2 36.8 L 32.2 39.1 L 34.5 39.1 L 34.5 36.8 z M 27.6 36.8 L 27.6 39.1 L 29.9 39.1 L 29.9 36.8 z M 23 36.8 L 23 39.1 L 25.3 39.1 L 25.3 36.8 z M 20.7 6.9 L 20.7 9.2 L 23.0 9.2 L 23.0 6.9 z M 20.7 46 L 20.7 48.3 L 23.0 48.3 L 23.0 46 z M 13.8 9.2 L 13.8 11.5 L 16.1 11.5 L 16.1 9.2 z M 9.2 9.2 L 9.2 11.5 L 11.5 11.5 L 11.5 9.2 z M 71.3 41.4 L 71.3 43.7 L 73.6 43.7 L 73.6 41.4 z M 6.9 18.4 L 6.9 20.7 L 9.2 20.7 L 9.2 18.4 z M 69 50.6 L 69 52.9 L 71.3 52.9 L 71.3 50.6 z M 66.7 13.8 L 66.7 16.1 L 69.0 16.1 L 69.0 13.8 z M 62.1 13.8 L 62.1 16.1 L 64.4 16.1 L 64.4 13.8 z M 62.1 52.9 L 62.1 55.2 L 64.4 55.2 L 64.4 52.9 z M 50.6 23 L 50.6 25.3 L 52.9 25.3 L 52.9 23 z M 55.2 62.1 L 55.2 64.4 L 57.5 64.4 L 57.5 62.1 z M 48.3 25.3 L 48.3 27.6 L 50.6 27.6 L 50.6 25.3 z M 46 62.1 L 46 64.4 L 48.3 64.4 L 48.3 62.1 z M 43.7 25.3 L 43.7 27.6 L 46.0 27.6 L 46.0 25.3 z M 48.3 64.4 L 48.3 66.7 L 50.6 66.7 L 50.6 64.4 z M 27.6 73.6 L 27.6 75.9 L 29.9 75.9 L 29.9 73.6 z M 20.7 4.6 L 20.7 6.9 L 23.0 6.9 L 23.0 4.6 z M 25.3 43.7 L 25.3 46.0 L 27.6 46.0 L 27.6 43.7 z M 23 6.9 L 23 9.2 L 25.3 9.2 L 25.3 6.9 z M 20.7 43.7 L 20.7 46.0 L 23.0 46.0 L 23.0 43.7 z M 18.4 6.9 L 18.4 9.2 L 20.7 9.2 L 20.7 6.9 z M 13.8 6.9 L 13.8 9.2 L 16.1 9.2 L 16.1 6.9 z M 13.8 46 L 13.8 48.3 L 16.1 48.3 L 16.1 46 z M 69 9.2 L 69 11.5 L 71.3 11.5 L 71.3 9.2 z M 69 48.3 L 69 50.6 L 71.3 50.6 L 71.3 48.3 z M 2.3 55.2 L 2.3 57.5 L 4.6 57.5 L 4.6 55.2 z M 59.8 59.8 L 59.8 62.1 L 62.1 62.1 L 62.1 59.8 z M 34.5 52.9 L 34.5 55.2 L 36.8 55.2 L 36.8 52.9 z M 55.2 59.8 L 55.2 62.1 L 57.5 62.1 L 57.5 59.8 z M 52.9 23 L 52.9 25.3 L 55.2 25.3 L 55.2 23 z M 50.6 59.8 L 50.6 62.1 L 52.9 62.1 L 52.9 59.8 z M 52.9 62.1 L 52.9 64.4 L 55.2 64.4 L 55.2 62.1 z M 46 32.2 L 46 34.5 L 48.3 34.5 L 48.3 32.2 z M 36.8 32.2 L 36.8 34.5 L 39.1 34.5 L 39.1 32.2 z M 23 4.6 L 23 6.9 L 25.3 6.9 L 25.3 4.6 z M 73.6 69 L 73.6 71.3 L 75.9 71.3 L 75.9 69 z M 18.4 4.6 L 18.4 6.9 L 20.7 6.9 L 20.7 4.6 z M 27.6 43.7 L 27.6 46.0 L 29.9 46.0 L 29.9 43.7 z M 23 43.7 L 23 46.0 L 25.3 46.0 L 25.3 43.7 z M 18.4 43.7 L 18.4 46.0 L 20.7 46.0 L 20.7 43.7 z M 11.5 13.8 L 11.5 16.1 L 13.8 16.1 L 13.8 13.8 z M 16.1 52.9 L 16.1 55.2 L 18.4 55.2 L 18.4 52.9 z M 66.7 9.2 L 66.7 11.5 L 69.0 11.5 L 69.0 9.2 z M 11.5 52.9 L 11.5 55.2 L 13.8 55.2 L 13.8 52.9 z M 9.2 55.2 L 9.2 57.5 L 11.5 57.5 L 11.5 55.2 z M 4.6 55.2 L 4.6 57.5 L 6.9 57.5 L 6.9 55.2 z M 69 18.4 L 69 20.7 L 71.3 20.7 L 71.3 18.4 z M 0 55.2 L 0 57.5 L 2.3 57.5 L 2.3 55.2 z M 69 57.5 L 69 59.8 L 71.3 59.8 L 71.3 57.5 z M 64.4 57.5 L 64.4 59.8 L 66.7 59.8 L 66.7 57.5 z M 39.1 50.6 L 39.1 52.9 L 41.4 52.9 L 41.4 50.6 z M 57.5 20.7 L 57.5 23.0 L 59.8 23.0 L 59.8 20.7 z M 52.9 20.7 L 52.9 23.0 L 55.2 23.0 L 55.2 20.7 z M 52.9 59.8 L 52.9 62.1 L 55.2 62.1 L 55.2 59.8 z M 46 29.9 L 46 32.2 L 48.3 32.2 L 48.3 29.9 z M 29.9 62.1 L 29.9 64.4 L 32.2 64.4 L 32.2 62.1 z M 50.6 69 L 50.6 71.3 L 52.9 71.3 L 52.9 69 z M 46 69 L 46 71.3 L 48.3 71.3 L 48.3 69 z M 73.6 27.6 L 73.6 29.9 L 75.9 29.9 L 75.9 27.6 z M 32.2 2.3 L 32.2 4.6 L 34.5 4.6 L 34.5 2.3 z M 32.2 41.4 L 32.2 43.7 L 34.5 43.7 L 34.5 41.4 z M 27.6 41.4 L 27.6 43.7 L 29.9 43.7 L 29.9 41.4 z M 23 41.4 L 23 43.7 L 25.3 43.7 L 25.3 41.4 z M 20.7 11.5 L 20.7 13.8 L 23.0 13.8 L 23.0 11.5 z M 18.4 13.8 L 18.4 16.1 L 20.7 16.1 L 20.7 13.8 z M 16.1 50.6 L 16.1 52.9 L 18.4 52.9 L 18.4 50.6 z M 13.8 13.8 L 13.8 16.1 L 16.1 16.1 L 16.1 13.8 z M 9.2 13.8 L 9.2 16.1 L 11.5 16.1 L 11.5 13.8 z M 9.2 52.9 L 9.2 55.2 L 11.5 55.2 L 11.5 52.9 z M 66.7 18.4 L 66.7 20.7 L 69.0 20.7 L 69.0 18.4 z M 2.3 23 L 2.3 25.3 L 4.6 25.3 L 4.6 23 z M 64.4 55.2 L 64.4 57.5 L 66.7 57.5 L 66.7 55.2 z M 0 64.4 L 0 66.7 L 2.3 66.7 L 2.3 64.4 z M 55.2 27.6 L 55.2 29.9 L 57.5 29.9 L 57.5 27.6 z M 34.5 59.8 L 34.5 62.1 L 36.8 62.1 L 36.8 59.8 z M 55.2 66.7 L 55.2 69.0 L 57.5 69.0 L 57.5 66.7 z M 29.9 59.8 L 29.9 62.1 L 32.2 62.1 L 32.2 59.8 z M 48.3 29.9 L 48.3 32.2 L 50.6 32.2 L 50.6 29.9 z M 43.7 29.9 L 43.7 32.2 L 46.0 32.2 L 46.0 29.9 z M 48.3 69 L 48.3 71.3 L 50.6 71.3 L 50.6 69 z M 41.4 0 L 41.4 2.3 L 43.7 2.3 L 43.7 0 z M 36.8 39.1 L 36.8 41.4 L 39.1 41.4 L 39.1 39.1 z M 13.8 11.5 L 13.8 13.8 L 16.1 13.8 L 16.1 11.5 z M 23 50.6 L 23 52.9 L 25.3 52.9 L 25.3 50.6 z M 18.4 50.6 L 18.4 52.9 L 20.7 52.9 L 20.7 50.6 z M 13.8 50.6 L 13.8 52.9 L 16.1 52.9 L 16.1 50.6 z M 11.5 20.7 L 11.5 23.0 L 13.8 23.0 L 13.8 20.7 z M 69 52.9 L 69 55.2 L 71.3 55.2 L 71.3 52.9 z M 11.5 59.8 L 11.5 62.1 L 13.8 62.1 L 13.8 59.8 z M 6.9 59.8 L 6.9 62.1 L 9.2 62.1 L 9.2 59.8 z M 4.6 23 L 4.6 25.3 L 6.9 25.3 L 6.9 23 z M 66.7 55.2 L 66.7 57.5 L 69.0 57.5 L 69.0 55.2 z M 0 23 L 0 25.3 L 2.3 25.3 L 2.3 23 z M 62.1 55.2 L 62.1 57.5 L 64.4 57.5 L 64.4 55.2 z M 2.3 59.8 L 2.3 62.1 L 4.6 62.1 L 4.6 59.8 z M 0 62.1 L 0 64.4 L 2.3 64.4 L 2.3 62.1 z M 64.4 25.3 L 64.4 27.6 L 66.7 27.6 L 66.7 25.3 z M 39.1 18.4 L 39.1 20.7 L 41.4 20.7 L 41.4 18.4 z M 34.5 18.4 L 34.5 20.7 L 36.8 20.7 L 36.8 18.4 z M 55.2 25.3 L 55.2 27.6 L 57.5 27.6 L 57.5 25.3 z M 59.8 64.4 L 59.8 66.7 L 62.1 66.7 L 62.1 64.4 z M 55.2 64.4 L 55.2 66.7 L 57.5 66.7 L 57.5 64.4 z M 52.9 27.6 L 52.9 29.9 L 55.2 29.9 L 55.2 27.6 z M 48.3 27.6 L 48.3 29.9 L 50.6 29.9 L 50.6 27.6 z M 48.3 66.7 L 48.3 69.0 L 50.6 69.0 L 50.6 66.7 z M 41.4 36.8 L 41.4 39.1 L 43.7 39.1 L 43.7 36.8 z M 36.8 36.8 L 36.8 39.1 L 39.1 39.1 L 39.1 36.8 z M 27.6 9.2 L 27.6 11.5 L 29.9 11.5 L 29.9 9.2 z M 25.3 46 L 25.3 48.3 L 27.6 48.3 L 27.6 46 z M 23 48.3 L 23 50.6 L 25.3 50.6 L 25.3 48.3 z M 18.4 48.3 L 18.4 50.6 L 20.7 50.6 L 20.7 48.3 z M 16.1 18.4 L 16.1 20.7 L 18.4 20.7 L 18.4 18.4 z M 71.3 13.8 L 71.3 16.1 L 73.6 16.1 L 73.6 13.8 z M 9.2 20.7 L 9.2 23.0 L 11.5 23.0 L 11.5 20.7 z M 71.3 52.9 L 71.3 55.2 L 73.6 55.2 L 73.6 52.9 z M 4.6 20.7 L 4.6 23.0 L 6.9 23.0 L 6.9 20.7 z M 9.2 59.8 L 9.2 62.1 L 11.5 62.1 L 11.5 59.8 z M 4.6 59.8 L 4.6 62.1 L 6.9 62.1 L 6.9 59.8 z M 0 59.8 L 0 62.1 L 2.3 62.1 L 2.3 59.8 z M 69 62.1 L 69 64.4 L 71.3 64.4 L 71.3 62.1 z M 64.4 62.1 L 64.4 64.4 L 66.7 64.4 L 66.7 62.1 z M 62.1 25.3 L 62.1 27.6 L 64.4 27.6 L 64.4 25.3 z M 57.5 25.3 L 57.5 27.6 L 59.8 27.6 L 59.8 25.3 z M 57.5 64.4 L 57.5 66.7 L 59.8 66.7 L 59.8 64.4 z M 52.9 64.4 L 52.9 66.7 L 55.2 66.7 L 55.2 64.4 z M 29.9 66.7 L 29.9 69.0 L 32.2 69.0 L 32.2 66.7 z M 50.6 73.6 L 50.6 75.9 L 52.9 75.9 L 52.9 73.6 z M 27.6 6.9 L 27.6 9.2 L 29.9 9.2 L 29.9 6.9 z M 73.6 71.3 L 73.6 73.6 L 75.9 73.6 L 75.9 71.3 z M 20.7 16.1 L 20.7 18.4 L 23.0 18.4 L 23.0 16.1 z M 25.3 55.2 L 25.3 57.5 L 27.6 57.5 L 27.6 55.2 z M 13.8 18.4 L 13.8 20.7 L 16.1 20.7 L 16.1 18.4 z M 9.2 18.4 L 9.2 20.7 L 11.5 20.7 L 11.5 18.4 z M 18.4 57.5 L 18.4 59.8 L 20.7 59.8 L 20.7 57.5 z M 64.4 20.7 L 64.4 23.0 L 66.7 23.0 L 66.7 20.7 z M 69 59.8 L 69 62.1 L 71.3 62.1 L 71.3 59.8 z M 66.7 23 L 66.7 25.3 L 69.0 25.3 L 69.0 23 z M 64.4 59.8 L 64.4 62.1 L 66.7 62.1 L 66.7 59.8 z M 62.1 23 L 62.1 25.3 L 64.4 25.3 L 64.4 23 z M 6.9 66.7 L 6.9 69.0 L 9.2 69.0 L 9.2 66.7 z M 66.7 62.1 L 66.7 64.4 L 69.0 64.4 L 69.0 62.1 z M 0 69 L 0 71.3 L 2.3 71.3 L 2.3 69 z M 39.1 25.3 L 39.1 27.6 L 41.4 27.6 L 41.4 25.3 z M 34.5 25.3 L 34.5 27.6 L 36.8 27.6 L 36.8 25.3 z M 55.2 32.2 L 55.2 34.5 L 57.5 34.5 L 57.5 32.2 z M 29.9 25.3 L 29.9 27.6 L 32.2 27.6 L 32.2 25.3 z M 39.1 64.4 L 39.1 66.7 L 41.4 66.7 L 41.4 64.4 z M 43.7 34.5 L 43.7 36.8 L 46.0 36.8 L 46.0 34.5 z M 48.3 73.6 L 48.3 75.9 L 50.6 75.9 L 50.6 73.6 z M 43.7 73.6 L 43.7 75.9 L 46.0 75.9 L 46.0 73.6 z M 41.4 4.6 L 41.4 6.9 L 43.7 6.9 L 43.7 4.6 z M 36.8 4.6 L 36.8 6.9 L 39.1 6.9 L 39.1 4.6 z M 32.2 4.6 L 32.2 6.9 L 34.5 6.9 L 34.5 4.6 z M 41.4 43.7 L 41.4 46.0 L 43.7 46.0 L 43.7 43.7 z M 25.3 52.9 L 25.3 55.2 L 27.6 55.2 L 27.6 52.9 z M 20.7 52.9 L 20.7 55.2 L 23.0 55.2 L 23.0 52.9 z M 13.8 55.2 L 13.8 57.5 L 16.1 57.5 L 16.1 55.2 z M 66.7 20.7 L 66.7 23.0 L 69.0 23.0 L 69.0 20.7 z M 62.1 20.7 L 62.1 23.0 L 64.4 23.0 L 64.4 20.7 z M 6.9 64.4 L 6.9 66.7 L 9.2 66.7 L 9.2 64.4 z M 66.7 59.8 L 66.7 62.1 L 69.0 62.1 L 69.0 59.8 z M 4.6 66.7 L 4.6 69.0 L 6.9 69.0 L 6.9 66.7 z M 0 66.7 L 0 69.0 L 2.3 69.0 L 2.3 66.7 z M 34.5 23 L 34.5 25.3 L 36.8 25.3 L 36.8 23 z M 34.5 62.1 L 34.5 64.4 L 36.8 64.4 L 36.8 62.1 z M 55.2 69 L 55.2 71.3 L 57.5 71.3 L 57.5 69 z M 46 2.3 L 46 4.6 L 48.3 4.6 L 48.3 2.3 z M 46 41.4 L 46 43.7 L 48.3 43.7 L 48.3 41.4 z M 41.4 41.4 L 41.4 43.7 L 43.7 43.7 L 43.7 41.4 z M 36.8 41.4 L 36.8 43.7 L 39.1 43.7 L 39.1 41.4 z M 73.6 0 L 73.6 2.3 L 75.9 2.3 L 75.9 0 z M 73.6 39.1 L 73.6 41.4 L 75.9 41.4 L 75.9 39.1 z M 27.6 13.8 L 27.6 16.1 L 29.9 16.1 L 29.9 13.8 z M 23 13.8 L 23 16.1 L 25.3 16.1 L 25.3 13.8 z M 18.4 52.9 L 18.4 55.2 L 20.7 55.2 L 20.7 52.9 z M 16.1 23 L 16.1 25.3 L 18.4 25.3 L 18.4 23 z M 20.7 62.1 L 20.7 64.4 L 23.0 64.4 L 23.0 62.1 z M 9.2 25.3 L 9.2 27.6 L 11.5 27.6 L 11.5 25.3 z M 71.3 57.5 L 71.3 59.8 L 73.6 59.8 L 73.6 57.5 z M 9.2 64.4 L 9.2 66.7 L 11.5 66.7 L 11.5 64.4 z M 4.6 64.4 L 4.6 66.7 L 6.9 66.7 L 6.9 64.4 z M 59.8 27.6 L 59.8 29.9 L 62.1 29.9 L 62.1 27.6 z M 2.3 34.5 L 2.3 36.8 L 4.6 36.8 L 4.6 34.5 z M 57.5 29.9 L 57.5 32.2 L 59.8 32.2 L 59.8 29.9 z M 2.3 73.6 L 2.3 75.9 L 4.6 75.9 L 4.6 73.6 z M 52.9 29.9 L 52.9 32.2 L 55.2 32.2 L 55.2 29.9 z M 50.6 0 L 50.6 2.3 L 52.9 2.3 L 52.9 0 z M 46 0 L 46 2.3 L 48.3 2.3 L 48.3 0 z M 29.9 32.2 L 29.9 34.5 L 32.2 34.5 L 32.2 32.2 z M 50.6 39.1 L 50.6 41.4 L 52.9 41.4 L 52.9 39.1 z M 46 39.1 L 46 41.4 L 48.3 41.4 L 48.3 39.1 z M 43.7 2.3 L 43.7 4.6 L 46.0 4.6 L 46.0 2.3 z M 41.4 39.1 L 41.4 41.4 L 43.7 41.4 L 43.7 39.1 z M 29.9 71.3 L 29.9 73.6 L 32.2 73.6 L 32.2 71.3 z M 43.7 41.4 L 43.7 43.7 L 46.0 43.7 L 46.0 41.4 z M 32.2 50.6 L 32.2 52.9 L 34.5 52.9 L 34.5 50.6 z M 27.6 50.6 L 27.6 52.9 L 29.9 52.9 L 29.9 50.6 z M 20.7 20.7 L 20.7 23.0 L 23.0 23.0 L 23.0 20.7 z M 25.3 59.8 L 25.3 62.1 L 27.6 62.1 L 27.6 59.8 z M 20.7 59.8 L 20.7 62.1 L 23.0 62.1 L 23.0 59.8 z M 13.8 23 L 13.8 25.3 L 16.1 25.3 L 16.1 23 z M 9.2 23 L 9.2 25.3 L 11.5 25.3 L 11.5 23 z M 13.8 62.1 L 13.8 64.4 L 16.1 64.4 L 16.1 62.1 z M 69 25.3 L 69 27.6 L 71.3 27.6 L 71.3 25.3 z M 6.9 32.2 L 6.9 34.5 L 9.2 34.5 L 9.2 32.2 z M 66.7 27.6 L 66.7 29.9 L 69.0 29.9 L 69.0 27.6 z M 2.3 32.2 L 2.3 34.5 L 4.6 34.5 L 4.6 32.2 z M 64.4 64.4 L 64.4 66.7 L 66.7 66.7 L 66.7 64.4 z M 66.7 66.7 L 66.7 69.0 L 69.0 69.0 L 69.0 66.7 z M 62.1 66.7 L 62.1 69.0 L 64.4 69.0 L 64.4 66.7 z M 57.5 66.7 L 57.5 69.0 L 59.8 69.0 L 59.8 66.7 z M 0 73.6 L 0 75.9 L 2.3 75.9 L 2.3 73.6 z M 39.1 29.9 L 39.1 32.2 L 41.4 32.2 L 41.4 29.9 z M 48.3 0 L 48.3 2.3 L 50.6 2.3 L 50.6 0 z M 43.7 0 L 43.7 2.3 L 46.0 2.3 L 46.0 0 z M 48.3 39.1 L 48.3 41.4 L 50.6 41.4 L 50.6 39.1 z M 36.8 9.2 L 36.8 11.5 L 39.1 11.5 L 39.1 9.2 z M 32.2 9.2 L 32.2 11.5 L 34.5 11.5 L 34.5 9.2 z M 32.2 48.3 L 32.2 50.6 L 34.5 50.6 L 34.5 48.3 z M 73.6 6.9 L 73.6 9.2 L 75.9 9.2 L 75.9 6.9 z M 25.3 18.4 L 25.3 20.7 L 27.6 20.7 L 27.6 18.4 z M 23 20.7 L 23 23.0 L 25.3 23.0 L 25.3 20.7 z M 20.7 57.5 L 20.7 59.8 L 23.0 59.8 L 23.0 57.5 z M 18.4 20.7 L 18.4 23.0 L 20.7 23.0 L 20.7 20.7 z M 23 59.8 L 23 62.1 L 25.3 62.1 L 25.3 59.8 z M 18.4 59.8 L 18.4 62.1 L 20.7 62.1 L 20.7 59.8 z M 13.8 59.8 L 13.8 62.1 L 16.1 62.1 L 16.1 59.8 z M 16.1 29.9 L 16.1 32.2 L 18.4 32.2 L 18.4 29.9 z M 71.3 25.3 L 71.3 27.6 L 73.6 27.6 L 73.6 25.3 z M 71.3 64.4 L 71.3 66.7 L 73.6 66.7 L 73.6 64.4 z M 6.9 69 L 6.9 71.3 L 9.2 71.3 L 9.2 69 z M 4.6 32.2 L 4.6 34.5 L 6.9 34.5 L 6.9 32.2 z M 0 32.2 L 0 34.5 L 2.3 34.5 L 2.3 32.2 z M 62.1 64.4 L 62.1 66.7 L 64.4 66.7 L 64.4 64.4 z M 0 71.3 L 0 73.6 L 2.3 73.6 L 2.3 71.3 z M 39.1 27.6 L 39.1 29.9 L 41.4 29.9 L 41.4 27.6 z M 64.4 73.6 L 64.4 75.9 L 66.7 75.9 L 66.7 73.6 z M 57.5 36.8 L 57.5 39.1 L 59.8 39.1 L 59.8 36.8 z M 55.2 73.6 L 55.2 75.9 L 57.5 75.9 L 57.5 73.6 z M 29.9 0 L 29.9 2.3 L 32.2 2.3 L 32.2 0 z M 41.4 6.9 L 41.4 9.2 L 43.7 9.2 L 43.7 6.9 z M 36.8 6.9 L 36.8 9.2 L 39.1 9.2 L 39.1 6.9 z M 41.4 46 L 41.4 48.3 L 43.7 48.3 L 43.7 46 z M 36.8 46 L 36.8 48.3 L 39.1 48.3 L 39.1 46 z M 73.6 4.6 L 73.6 6.9 L 75.9 6.9 L 75.9 4.6 z M 27.6 57.5 L 27.6 59.8 L 29.9 59.8 L 29.9 57.5 z M 20.7 27.6 L 20.7 29.9 L 23.0 29.9 L 23.0 27.6 z M 16.1 27.6 L 16.1 29.9 L 18.4 29.9 L 18.4 27.6 z M 11.5 27.6 L 11.5 29.9 L 13.8 29.9 L 13.8 27.6 z M 71.3 23 L 71.3 25.3 L 73.6 25.3 L 73.6 23 z M 9.2 29.9 L 9.2 32.2 L 11.5 32.2 L 11.5 29.9 z M 71.3 62.1 L 71.3 64.4 L 73.6 64.4 L 73.6 62.1 z M 13.8 69 L 13.8 71.3 L 16.1 71.3 L 16.1 69 z M 9.2 69 L 9.2 71.3 L 11.5 71.3 L 11.5 69 z M 4.6 69 L 4.6 71.3 L 6.9 71.3 L 6.9 69 z M 2.3 0 L 2.3 2.3 L 4.6 2.3 L 4.6 0 z M 64.4 32.2 L 64.4 34.5 L 66.7 34.5 L 66.7 32.2 z M 59.8 32.2 L 59.8 34.5 L 62.1 34.5 L 62.1 32.2 z M 69 71.3 L 69 73.6 L 71.3 73.6 L 71.3 71.3 z M 2.3 39.1 L 2.3 41.4 L 4.6 41.4 L 4.6 39.1 z M 57.5 34.5 L 57.5 36.8 L 59.8 36.8 L 59.8 34.5 z M 52.9 34.5 L 52.9 36.8 L 55.2 36.8 L 55.2 34.5 z M 46 4.6 L 46 6.9 L 48.3 6.9 L 48.3 4.6 z M 34.5 36.8 L 34.5 39.1 L 36.8 39.1 L 36.8 36.8 z M 29.9 36.8 L 29.9 39.1 L 32.2 39.1 L 32.2 36.8 z M 50.6 43.7 L 50.6 46.0 L 52.9 46.0 L 52.9 43.7 z M 46 43.7 L 46 46.0 L 48.3 46.0 L 48.3 43.7 z M 43.7 46 L 43.7 48.3 L 46.0 48.3 L 46.0 46 z M 73.6 2.3 L 73.6 4.6 L 75.9 4.6 L 75.9 2.3 z M 73.6 41.4 L 73.6 43.7 L 75.9 43.7 L 75.9 41.4 z M 27.6 16.1 L 27.6 18.4 L 29.9 18.4 L 29.9 16.1 z M 13.8 27.6 L 13.8 29.9 L 16.1 29.9 L 16.1 27.6 z M 18.4 66.7 L 18.4 69.0 L 20.7 69.0 L 20.7 66.7 z M 13.8 66.7 L 13.8 69.0 L 16.1 69.0 L 16.1 66.7 z M 9.2 66.7 L 9.2 69.0 L 11.5 69.0 L 11.5 66.7 z M 69 29.9 L 69 32.2 L 71.3 32.2 L 71.3 29.9 z M 6.9 36.8 L 6.9 39.1 L 9.2 39.1 L 9.2 36.8 z M 69 69 L 69 71.3 L 71.3 71.3 L 71.3 69 z M 66.7 32.2 L 66.7 34.5 L 69.0 34.5 L 69.0 32.2 z M 64.4 69 L 64.4 71.3 L 66.7 71.3 L 66.7 69 z M 0 0 L 0 2.3 L 2.3 2.3 L 2.3 0 z M 57.5 71.3 L 57.5 73.6 L 59.8 73.6 L 59.8 71.3 z M 59.8 2.3 L 59.8 4.6 L 62.1 4.6 L 62.1 2.3 z M 55.2 2.3 L 55.2 4.6 L 57.5 4.6 L 57.5 2.3 z M 59.8 41.4 L 59.8 43.7 L 62.1 43.7 L 62.1 41.4 z M 34.5 34.5 L 34.5 36.8 L 36.8 36.8 L 36.8 34.5 z M 52.9 4.6 L 52.9 6.9 L 55.2 6.9 L 55.2 4.6 z M 39.1 73.6 L 39.1 75.9 L 41.4 75.9 L 41.4 73.6 z M 48.3 4.6 L 48.3 6.9 L 50.6 6.9 L 50.6 4.6 z M 43.7 4.6 L 43.7 6.9 L 46.0 6.9 L 46.0 4.6 z M 41.4 13.8 L 41.4 16.1 L 43.7 16.1 L 43.7 13.8 z M 36.8 13.8 L 36.8 16.1 L 39.1 16.1 L 39.1 13.8 z M 32.2 13.8 L 32.2 16.1 L 34.5 16.1 L 34.5 13.8 z M 41.4 52.9 L 41.4 55.2 L 43.7 55.2 L 43.7 52.9 z M 36.8 52.9 L 36.8 55.2 L 39.1 55.2 L 39.1 52.9 z M 73.6 11.5 L 73.6 13.8 L 75.9 13.8 L 75.9 11.5 z M 18.4 25.3 L 18.4 27.6 L 20.7 27.6 L 20.7 25.3 z M 23 64.4 L 23 66.7 L 25.3 66.7 L 25.3 64.4 z M 18.4 64.4 L 18.4 66.7 L 20.7 66.7 L 20.7 64.4 z M 13.8 64.4 L 13.8 66.7 L 16.1 66.7 L 16.1 64.4 z M 16.1 34.5 L 16.1 36.8 L 18.4 36.8 L 18.4 34.5 z M 71.3 29.9 L 71.3 32.2 L 73.6 32.2 L 73.6 29.9 z M 6.9 34.5 L 6.9 36.8 L 9.2 36.8 L 9.2 34.5 z M 11.5 73.6 L 11.5 75.9 L 13.8 75.9 L 13.8 73.6 z M 71.3 69 L 71.3 71.3 L 73.6 71.3 L 73.6 69 z M 6.9 73.6 L 6.9 75.9 L 9.2 75.9 L 9.2 73.6 z M 4.6 36.8 L 4.6 39.1 L 6.9 39.1 L 6.9 36.8 z M 64.4 0 L 64.4 2.3 L 66.7 2.3 L 66.7 0 z M 59.8 0 L 59.8 2.3 L 62.1 2.3 L 62.1 0 z M 55.2 0 L 55.2 2.3 L 57.5 2.3 L 57.5 0 z M 64.4 39.1 L 64.4 41.4 L 66.7 41.4 L 66.7 39.1 z M 59.8 39.1 L 59.8 41.4 L 62.1 41.4 L 62.1 39.1 z M 55.2 39.1 L 55.2 41.4 L 57.5 41.4 L 57.5 39.1 z M 39.1 71.3 L 39.1 73.6 L 41.4 73.6 L 41.4 71.3 z M 48.3 2.3 L 48.3 4.6 L 50.6 4.6 L 50.6 2.3 z M 34.5 71.3 L 34.5 73.6 L 36.8 73.6 L 36.8 71.3 z M 52.9 41.4 L 52.9 43.7 L 55.2 43.7 L 55.2 41.4 z M 41.4 11.5 L 41.4 13.8 L 43.7 13.8 L 43.7 11.5 z M 29.9 43.7 L 29.9 46.0 L 32.2 46.0 L 32.2 43.7 z M 36.8 50.6 L 36.8 52.9 L 39.1 52.9 L 39.1 50.6 z M 73.6 9.2 L 73.6 11.5 L 75.9 11.5 L 75.9 9.2 z M 27.6 23 L 27.6 25.3 L 29.9 25.3 L 29.9 23 z M 27.6 62.1 L 27.6 64.4 L 29.9 64.4 L 29.9 62.1 z M 23 62.1 L 23 64.4 L 25.3 64.4 L 25.3 62.1 z M 20.7 32.2 L 20.7 34.5 L 23.0 34.5 L 23.0 32.2 z M 20.7 71.3 L 20.7 73.6 L 23.0 73.6 L 23.0 71.3 z M 71.3 27.6 L 71.3 29.9 L 73.6 29.9 L 73.6 27.6 z M 71.3 66.7 L 71.3 69.0 L 73.6 69.0 L 73.6 66.7 z M 13.8 73.6 L 13.8 75.9 L 16.1 75.9 L 16.1 73.6 z M 9.2 73.6 L 9.2 75.9 L 11.5 75.9 L 11.5 73.6 z M 4.6 73.6 L 4.6 75.9 L 6.9 75.9 L 6.9 73.6 z M 64.4 36.8 L 64.4 39.1 L 66.7 39.1 L 66.7 36.8 z M 62.1 0 L 62.1 2.3 L 64.4 2.3 L 64.4 0 z M 59.8 36.8 L 59.8 39.1 L 62.1 39.1 L 62.1 36.8 z M 2.3 43.7 L 2.3 46.0 L 4.6 46.0 L 4.6 43.7 z M 57.5 39.1 L 57.5 41.4 L 59.8 41.4 L 59.8 39.1 z M 55.2 9.2 L 55.2 11.5 L 57.5 11.5 L 57.5 9.2 z M 46 9.2 L 46 11.5 L 48.3 11.5 L 48.3 9.2 z M 50.6 48.3 L 50.6 50.6 L 52.9 50.6 L 52.9 48.3 z M 43.7 11.5 L 43.7 13.8 L 46.0 13.8 L 46.0 11.5 z M 43.7 50.6 L 43.7 52.9 L 46.0 52.9 L 46.0 50.6 z M 36.8 20.7 L 36.8 23.0 L 39.1 23.0 L 39.1 20.7 z M 73.6 46 L 73.6 48.3 L 75.9 48.3 L 75.9 46 z M 32.2 20.7 L 32.2 23.0 L 34.5 23.0 L 34.5 20.7 z M 27.6 59.8 L 27.6 62.1 L 29.9 62.1 L 29.9 59.8 z M 25.3 29.9 L 25.3 32.2 L 27.6 32.2 L 27.6 29.9 z M 20.7 29.9 L 20.7 32.2 L 23.0 32.2 L 23.0 29.9 z M 25.3 69 L 25.3 71.3 L 27.6 71.3 L 27.6 69 z M 13.8 32.2 L 13.8 34.5 L 16.1 34.5 L 16.1 32.2 z M 9.2 32.2 L 9.2 34.5 L 11.5 34.5 L 11.5 32.2 z M 13.8 71.3 L 13.8 73.6 L 16.1 73.6 L 16.1 71.3 z" id="qr-path" fill="#000000" fill-opacity="1" fill-rule="nonzero" stroke="none"/></svg>
</g>
<g id="title">
	<text transform="matrix(0.9457 0 0 1 0 258.1911)" class="st0 st1">  b'Maria Rearte' </text>
</g>
<g>
	<path class="st2" d="M130,78.8L130,78.8c0.9,10.4-13.8,25.5-15.1,26.4c-1.3,0.9-1.9,2.8-0.3,5.3s-1.6,4.7-1.6,4.7l-15.1,8.2
		l-1.6-1.9l9.4-11.6l-1.3-1.3l-1.9,1.6l-1.9-1.6l-1.9-2.2l1.6-1.9l-1.3-1.3l-11.6,9.4l-2.2-1.6l8.1-14.9c0,0,2.2-3.1,4.7-1.6
		c2.5,1.6,4.1,0.9,5.3-0.3C104.9,93,119.4,77.9,130,78.8z"/>
	<g>
		<path class="st3" d="M130,78.8L130,78.8l-15.7,16l-5.3,5.3l-8.5,8.5l-1.6-2.2l1.6-1.9l-1.3-1.3l-11.6,9.4l-2.2-1.6l7.9-14.9
			c0,0,2.2-3.1,4.7-1.6c2.5,1.6,4.1,0.9,5.3-0.3C104.9,93,119.4,77.9,130,78.8z"/>
		<path class="st3" d="M130,78.8L130,78.8c0.9,10.4-13.8,25.5-15.1,26.4c-1.3,0.9-1.9,2.8-0.3,5.3s-1.6,4.7-1.6,4.7l-15.1,8.2
			l-1.6-1.9l9.4-11.6l-1.3-1.3l-1.9,1.6l-1.9-1.6l8.2-8.5l5.3-5.3L130,78.8z"/>
		<circle class="st4" cx="111.8" cy="97.7" r="3.8"/>
	</g>
</g>
<text transform="matrix(1 0 0 1 101.0311 269.6303)" class="st5 st6 st7">KK</text>
</svg>